<?xml version="1.0" encoding="UTF-8" standalone="no"?>
<svg
   xmlns:dc="http://purl.org/dc/elements/1.1/"
   xmlns:cc="http://creativecommons.org/ns#"
   xmlns:rdf="http://www.w3.org/1999/02/22-rdf-syntax-ns#"
   xmlns:svg="http://www.w3.org/2000/svg"
   xmlns="http://www.w3.org/2000/svg"
   xmlns:sodipodi="http://sodipodi.sourceforge.net/DTD/sodipodi-0.dtd"
   xmlns:inkscape="http://www.inkscape.org/namespaces/inkscape"
   width="68.527328mm"
   height="68.527328mm"
   viewBox="0 0 68.527328 68.527328"
   version="1.1"
   id="svg8"
   inkscape:version="1.0.2-2 (e86c870879, 2021-01-15)"
   sodipodi:docname="favicon.svg">
  <defs
     id="defs2" />
  <sodipodi:namedview
     id="base"
     pagecolor="#ffffff"
     bordercolor="#666666"
     borderopacity="1.0"
     inkscape:pageopacity="0.0"
     inkscape:pageshadow="2"
     inkscape:zoom="0.98994949"
     inkscape:cx="92.15865"
     inkscape:cy="157.186"
     inkscape:document-units="mm"
     inkscape:current-layer="layer1"
     inkscape:document-rotation="0"
     showgrid="false"
     fit-margin-top="0"
     fit-margin-left="0"
     fit-margin-right="0"
     fit-margin-bottom="0"
     inkscape:window-width="1366"
     inkscape:window-height="715"
     inkscape:window-x="-8"
     inkscape:window-y="-8"
     inkscape:window-maximized="1" />
  <metadata
     id="metadata5">
    <rdf:RDF>
      <cc:Work
         rdf:about="">
        <dc:format>image/svg+xml</dc:format>
        <dc:type
           rdf:resource="http://purl.org/dc/dcmitype/StillImage" />
        <dc:title />
      </cc:Work>
    </rdf:RDF>
  </metadata>
  <g
     inkscape:label="Layer 1"
     inkscape:groupmode="layer"
     id="layer1"
     transform="translate(-43.448234,-110.728)">
    <rect
       style="fill:#000000;stroke:#000000;stroke-width:0.793999;stroke-linecap:round;stroke-linejoin:round;stroke-dasharray:3.17601, 0.793999"
       id="rect833"
       width="67.73333"
       height="67.73333"
       x="43.845234"
       y="111.125" />
    <g
       aria-label="[i.dev]"
       id="text837"
       style="font-size:15.2674px;line-height:1.25;font-family:zeuin;-inkscape-font-specification:zeuin;fill:#ffffff;stroke-width:0.381686">
      <path
         d="m 48.093213,138.12133 v 13.74066 h 4.274872 v -1.52674 h -2.748132 v -10.68718 h 2.748132 v -1.52674 z"
         style="font-style:normal;font-variant:normal;font-weight:normal;font-stretch:normal;font-family:'PP Supply Mono';-inkscape-font-specification:'PP Supply Mono';fill:#ffffff;stroke-width:0.381686"
         id="path833" />
      <path
         d="m 60.078098,148.80851 v -6.25963 h -4.045861 v 1.52674 h 2.519121 v 4.73289 h -2.519121 v 1.52674 h 6.717656 v -1.52674 z m -1.679414,-7.6337 h 1.679414 v -1.52674 h -1.679414 z"
         style="font-style:normal;font-variant:normal;font-weight:normal;font-stretch:normal;font-family:'PP Supply Mono';-inkscape-font-specification:'PP Supply Mono';fill:#ffffff;stroke-width:0.381686"
         id="path835" />
      <path
         d="m 67.711775,148.80851 v 1.52674 h 1.679414 v -1.52674 z"
         style="font-style:normal;font-variant:normal;font-weight:normal;font-stretch:normal;font-family:'PP Supply Mono';-inkscape-font-specification:'PP Supply Mono';fill:#ffffff;stroke-width:0.381686"
         id="path837" />
      <path
         d="m 81.070727,139.4954 h -1.52674 v 3.90845 l -1.267194,-0.85497 h -1.17559 c -1.511472,0 -2.748131,1.22139 -2.748131,2.74813 v 2.29011 c 0,1.51147 1.236659,2.74813 2.748131,2.74813 h 1.17559 l 1.267194,-0.85497 v 0.85497 h 1.52674 z m -5.190916,8.09172 v -2.29011 c 0,-0.67177 0.549627,-1.22139 1.221392,-1.22139 h 0.702301 l 1.740483,1.17559 v 2.38171 l -1.740483,1.17559 h -0.702301 c -0.671765,0 -1.221392,-0.54963 -1.221392,-1.22139 z"
         style="font-style:normal;font-variant:normal;font-weight:normal;font-stretch:normal;font-family:'PP Supply Mono';-inkscape-font-specification:'PP Supply Mono';fill:#ffffff;stroke-width:0.381686"
         id="path839" />
      <path
         d="m 90.231143,145.14433 c -0.07634,-1.4504 -1.267194,-2.59545 -2.748132,-2.59545 h -1.221392 c -1.511472,0 -2.748132,1.22139 -2.748132,2.74813 v 2.27484 c 0,1.51147 1.23666,2.7634 2.748132,2.7634 h 1.221392 c 1.52674,0 2.748132,-1.25193 2.748132,-2.7634 v -0.15267 h -1.52674 v 0.15267 c 0,0.67177 -0.549626,1.22139 -1.221392,1.22139 h -1.221392 c -0.671765,0 -1.221392,-0.54962 -1.221392,-1.22139 v -0.77864 h 5.190916 z m -5.190916,0.42749 v -0.27481 c 0,-0.67177 0.534359,-1.22139 1.221392,-1.22139 h 1.221392 c 0.687033,0 1.221392,0.53436 1.221392,1.22139 v 0.27481 z"
         style="font-style:normal;font-variant:normal;font-weight:normal;font-stretch:normal;font-family:'PP Supply Mono';-inkscape-font-specification:'PP Supply Mono';fill:#ffffff;stroke-width:0.381686"
         id="path841" />
      <path
         d="m 97.864819,142.54888 v 3.08401 l -1.816821,2.99241 h -0.03054 l -1.81682,-2.99241 v -3.08401 h -1.52674 v 3.5115 l 2.595458,4.27487 h 1.52674 l 2.595458,-4.27487 v -3.5115 z"
         style="font-style:normal;font-variant:normal;font-weight:normal;font-stretch:normal;font-family:'PP Supply Mono';-inkscape-font-specification:'PP Supply Mono';fill:#ffffff;stroke-width:0.381686"
         id="path843" />
      <path
         d="m 107.33059,138.12133 h -4.27488 v 1.52674 h 2.74814 v 10.68718 h -2.74814 v 1.52674 h 4.27488 z"
         style="font-style:normal;font-variant:normal;font-weight:normal;font-stretch:normal;font-family:'PP Supply Mono';-inkscape-font-specification:'PP Supply Mono';fill:#ffffff;stroke-width:0.381686"
         id="path845" />
    </g>
  </g>
</svg>
